<?xml version="1.0" standalone="no"?>
<!DOCTYPE svg PUBLIC "-//W3C//DTD SVG 20010904//EN"
 "http://www.w3.org/TR/2001/REC-SVG-20010904/DTD/svg10.dtd">
<svg version="1.0" xmlns="http://www.w3.org/2000/svg"
 width="500.000000pt" height="500.000000pt" viewBox="0 0 500.000000 500.000000"
 preserveAspectRatio="xMidYMid meet">
<metadata>
Created by potrace 1.14, written by Peter Selinger 2001-2017
</metadata>
<g transform="translate(0.000000,500.000000) scale(0.100000,-0.100000)"
fill="#000000" stroke="none">
<path d="M0 2500 l0 -2500 1203 1 c749 1 1170 5 1117 10 -765 79 -1427 475
-1846 1105 -204 308 -332 639 -391 1014 -14 91 -18 172 -18 385 0 237 3 286
23 398 94 524 335 990 696 1349 397 394 891 641 1426 712 63 9 133 17 155 19
22 2 -501 4 -1162 5 l-1203 2 0 -2500z"/>
<path d="M2730 4993 c397 -39 644 -108 961 -269 347 -176 629 -414 864 -729
191 -256 316 -510 410 -833 l34 -117 0 978 1 977 -1152 -2 c-634 0 -1137 -3
-1118 -5z"/>
<path d="M2341 4489 c-297 -32 -635 -154 -891 -325 -439 -292 -745 -745 -856
-1266 -32 -151 -44 -465 -25 -625 56 -457 258 -873 577 -1189 225 -222 482
-381 774 -478 425 -141 849 -141 1270 0 514 173 924 534 1166 1029 322 659
246 1458 -196 2054 -421 568 -1115 873 -1819 800z m-235 -2176 c141 -269 129
-243 111 -243 -10 0 -52 70 -112 184 -53 101 -103 192 -110 203 -12 15 -14
-21 -15 -269 0 -185 -4 -288 -10 -288 -6 0 -10 113 -10 320 0 257 3 320 13
320 7 0 67 -102 133 -227z m63 -2 c67 -126 121 -232 121 -235 0 -3 -6 -6 -12
-6 -15 0 -20 10 -159 278 -69 131 -96 192 -85 192 9 0 61 -88 135 -229z m56
11 c62 -117 114 -215 117 -218 6 -5 219 395 226 424 2 6 12 12 23 12 18 0 19
-11 19 -320 0 -276 -2 -320 -15 -320 -13 0 -15 41 -17 287 l-3 287 -105 -199
c-78 -149 -110 -201 -125 -203 -16 -2 -28 14 -62 80 -23 46 -79 152 -123 236
-61 115 -77 153 -64 150 12 -2 57 -78 129 -216z m255 213 c0 -7 -161 -308
-170 -318 -4 -5 -10 -2 -13 5 -7 20 151 318 169 318 8 0 14 -2 14 -5z m-30
-181 c-102 -193 -124 -228 -118 -184 5 44 181 370 199 370 12 0 -9 -49 -81
-186z m260 -179 c0 -238 -2 -275 -15 -275 -13 0 -15 37 -15 275 0 238 2 275
15 275 13 0 15 -37 15 -275z m50 0 c0 -177 -4 -275 -10 -275 -6 0 -10 98 -10
275 0 177 4 275 10 275 6 0 10 -98 10 -275z m60 0 c0 -238 -2 -275 -15 -275
-13 0 -15 37 -15 275 0 238 2 275 15 275 13 0 15 -37 15 -275z m50 0 c0 -177
-4 -275 -10 -275 -6 0 -10 98 -10 275 0 177 4 275 10 275 6 0 10 -98 10 -275z
m545 256 c49 -22 99 -77 115 -127 26 -76 -14 -201 -74 -234 -14 -7 -26 -17
-26 -20 0 -4 11 -38 25 -74 29 -78 29 -76 11 -76 -8 0 -20 17 -27 38 -25 77
-40 105 -50 95 -7 -7 -2 -31 15 -72 22 -54 23 -62 8 -59 -9 2 -26 29 -41 66
-13 34 -28 62 -33 62 -13 0 -9 -25 12 -75 24 -56 24 -55 6 -55 -9 0 -24 24
-37 60 -21 58 -34 78 -45 67 -3 -2 4 -29 16 -58 23 -63 24 -69 7 -69 -7 0 -23
29 -35 65 -24 65 -24 65 -63 65 -21 0 -39 4 -39 9 0 5 49 10 108 13 84 3 117
9 142 24 105 61 132 195 58 280 -58 66 -70 69 -293 69 l-200 0 -3 -262 c-1
-164 -6 -263 -12 -263 -6 0 -10 101 -10 275 l0 275 213 0 c183 0 217 -3 252
-19z m-32 -45 c18 -7 47 -30 65 -50 58 -67 40 -170 -41 -230 -24 -18 -46 -22
-138 -24 -92 -3 -109 -1 -109 11 0 12 20 16 109 19 106 3 111 4 141 33 45 44
57 93 34 141 -11 21 -34 49 -53 61 -32 22 -44 23 -197 23 l-164 0 0 -235 c0
-202 -2 -235 -15 -235 -13 0 -15 34 -15 250 l0 250 175 0 c125 0 185 -4 208
-14z m-1343 -263 c0 -192 -2 -223 -15 -223 -13 0 -15 33 -15 243 1 215 2 240
15 223 12 -16 15 -62 15 -243z m510 17 c0 -153 -4 -240 -10 -240 -6 0 -10 81
-10 224 0 201 3 256 16 256 2 0 4 -108 4 -240z m846 166 c37 -37 43 -70 20
-115 -8 -15 -26 -32 -41 -39 -32 -15 -215 -16 -215 -2 0 6 33 10 80 10 128 0
174 31 156 106 -11 42 -59 55 -194 52 l-117 -3 -3 -207 c-1 -127 -6 -208 -12
-208 -6 0 -10 83 -10 220 l0 220 151 0 151 0 34 -34z m-1516 -31 c0 -13 -23
-15 -150 -15 -127 0 -150 2 -150 15 0 13 23 15 150 15 127 0 150 -2 150 -15z
m1471 5 c12 -7 19 -21 19 -40 0 -41 -23 -50 -124 -50 -70 0 -86 3 -86 15 0 12
17 15 89 15 67 0 90 3 94 14 9 23 -2 26 -105 26 l-98 0 0 -180 c0 -153 -2
-180 -15 -180 -13 0 -15 28 -15 195 l0 195 111 0 c61 0 119 -5 130 -10z m-851
-190 c0 -162 -2 -190 -15 -190 -13 0 -15 26 -15 171 0 150 7 209 25 209 3 0 5
-85 5 -190z m-410 -17 c0 -109 -4 -173 -10 -173 -6 0 -10 69 -10 188 0 124 4
182 10 172 5 -8 10 -93 10 -187z m-210 142 c0 -13 -23 -15 -150 -15 -127 0
-150 2 -150 15 0 13 23 15 150 15 127 0 150 -2 150 -15z m0 -50 c0 -13 -23
-15 -150 -15 -127 0 -150 2 -150 15 0 13 23 15 150 15 127 0 150 -2 150 -15z
m270 -147 c0 -98 -3 -118 -15 -118 -13 0 -15 22 -15 138 1 123 2 135 15 118
11 -15 15 -50 15 -138z m290 17 c0 -113 -2 -135 -15 -135 -12 0 -15 19 -15
110 0 92 11 160 27 160 1 0 3 -61 3 -135z"/>
<path d="M4981 1893 c-47 -215 -197 -556 -336 -763 -443 -662 -1111 -1055
-1910 -1123 -22 -2 479 -4 1113 -5 l1152 -2 0 975 c0 536 -2 975 -3 975 -2 0
-9 -26 -16 -57z"/>
</g>
</svg>
